<svg xmlns="http://www.w3.org/2000/svg" width="41.414" height="42.414" viewBox="0 0 41.414 42.414"><g fill="#868585"><path d="M6.502 27.84L21 13.343V1.331L5.016 17.414H0v8.917h5zM13.555 34.929L21 42.414v-14.93z"/></g><path fill="#868585" d="M29.34 19.144c.03.491.051 1.005.051 1.562 0 7.702-2.307 8.969-2.307 8.969s4.646-2.599 4.646-9c0-1.27-.22-2.381-.564-3.356l-1.826 1.825zM34.973 13.512c.586 1.701 1.027 4.05 1.027 7.319 0 9.875-2.958 11.5-2.958 11.5S39 28.998 39 20.79c0-3.734-1.45-6.433-3.029-8.276l-.998.998zM38.585 0l2.829 2.828-38 38-2.828-2.829z"/></svg>