<svg xmlns="http://www.w3.org/2000/svg" width="40.828" height="40.828" viewBox="0 0 40.828 40.828"><path d="M5.917 27.84l14.497-14.497V1.331L4.43 17.414H-.586v8.917h5zm7.052 7.089l7.445 7.485v-14.93zM28.754 19.144c.03.491.051 1.005.051 1.562 0 7.702-2.307 8.969-2.307 8.969s4.646-2.599 4.646-9c0-1.27-.22-2.381-.564-3.356l-1.826 1.825zm5.633-5.632c.586 1.701 1.027 4.051 1.027 7.319 0 9.875-2.958 11.5-2.958 11.5s5.958-3.333 5.958-11.541c0-3.734-1.45-6.433-3.029-8.276l-.998.998zM38 0l2.828 2.828-38 38L0 37.999z" fill="#868585"/></svg>